<svg xmlns="http://www.w3.org/2000/svg" viewBox="0 0 420 150" version="1.1">
<path d="M166.77,66.68h-5.26L149.06,51V66.68H143V40.59h5.29L160.7,56.18V40.59h6.07Z" style="fill:#00284b"/>
<path d="M175.26,53.59a12.91,12.91,0,0,1,.51-3.64,13.33,13.33,0,0,1,1.44-3.27,13.49,13.49,0,0,1,2.23-2.77,14.74,14.74,0,0,1,2.87-2.13,14.57,14.57,0,0,1,3.41-1.37,14.68,14.68,0,0,1,13.89,3.5,13.49,13.49,0,0,1,2.23,2.77A13.33,13.33,0,0,1,203.28,50a13.28,13.28,0,0,1,0,7.29,13.67,13.67,0,0,1-1.44,3.27,13.49,13.49,0,0,1-2.23,2.77,14.17,14.17,0,0,1-2.9,2.13,14.75,14.75,0,0,1-3.41,1.37,14.9,14.9,0,0,1-7.58,0,14.57,14.57,0,0,1-3.41-1.37,14,14,0,0,1-2.87-2.13,13.49,13.49,0,0,1-2.23-2.77,13.67,13.67,0,0,1-1.44-3.27A13,13,0,0,1,175.26,53.59Zm6.07,0A8.62,8.62,0,0,0,182,57a8.46,8.46,0,0,0,1.75,2.68,8.26,8.26,0,0,0,2.61,1.77,8.34,8.34,0,0,0,6.41,0,8.1,8.1,0,0,0,2.6-1.77A8.64,8.64,0,0,0,197.09,57a9.09,9.09,0,0,0,0-6.7,8.47,8.47,0,0,0-1.75-2.67,8.23,8.23,0,0,0-9-1.78,8.12,8.12,0,0,0-2.61,1.78A8.31,8.31,0,0,0,182,50.26,8.62,8.62,0,0,0,181.33,53.61Z" style="fill:#00284b"/>
<path d="M212.27,40.59h10.59a17.54,17.54,0,0,1,5.52.84,12.45,12.45,0,0,1,4.42,2.49A11.5,11.5,0,0,1,235.74,48a13.86,13.86,0,0,1,1.06,5.61,14.91,14.91,0,0,1-.91,5.33,11.19,11.19,0,0,1-2.68,4.12,12.47,12.47,0,0,1-4.37,2.67,17.2,17.2,0,0,1-5.93,1H212.27Zm10.49,20.87a8.1,8.1,0,0,0,5.92-2,7.7,7.7,0,0,0,2-5.76,10.1,10.1,0,0,0-.49-3.26,6.24,6.24,0,0,0-4-4.07,10.1,10.1,0,0,0-3.51-.56h-4.41V61.46Z" style="fill:#00284b"/>
<path d="M245.25,40.59h18.38v5.23h-12.3v5.34h10.55v5.21H251.33v5.09H263.8v5.22H245.25Z" style="fill:#00284b"/>
<path d="M157.38,109.51l-6.6-9.27v16.2H144.7V90.35H150l8.12,11.08,8.21-11.08h5.31v26.09h-6.06V100.3l-6.72,9.21Z" style="fill:#00284b"/>
<path d="M183,90.35h18.38v5.23H189.06v5.34h10.55v5.21H189.06v5.09h12.46v5.22H183Z" style="fill:#00284b"/>
<path d="M217.71,95.56h-7.29V90.35h20.65v5.21h-7.29v20.88h-6.07Z" style="fill:#00284b"/>
<path d="M253.9,112.29H243l-1.65,4.15h-6.42l10.68-26.11h5.72L262,116.44h-6.4Zm-8.85-5.18h6.76l-3.17-7.88-.19-.85h0l-.19.85Z" style="fill:#00284b"/>
<path d="M282.44,109.51l-6.6-9.27v16.2h-6.09V90.35h5.34l8.11,11.08,8.21-11.08h5.32v26.09h-6.06V100.3L284,109.51Z" style="fill:#00284b"/>
<path d="M323.44,112.29H312.51l-1.65,4.15h-6.43l10.69-26.11h5.71l10.69,26.11h-6.41Zm-8.84-5.18h6.75l-3.16-7.88-.19-.85h0l-.19.85Z" style="fill:#00284b"/>
<path d="M339.32,109.24c.53.26,1.17.53,1.9.83s1.49.57,2.31.82a22.7,22.7,0,0,0,2.49.64,11.86,11.86,0,0,0,2.47.26,9.19,9.19,0,0,0,2.21-.22,4.14,4.14,0,0,0,1.45-.61,2.3,2.3,0,0,0,.8-.94,3,3,0,0,0,.24-1.22,2,2,0,0,0-.42-1.27,3.53,3.53,0,0,0-1.21-.92,11.79,11.79,0,0,0-1.95-.74c-.78-.24-1.66-.49-2.66-.77l-1.66-.45c-.62-.18-1.25-.39-1.89-.64a13.94,13.94,0,0,1-1.87-.9,7.71,7.71,0,0,1-1.63-1.24,5.45,5.45,0,0,1-1.15-1.64,4.91,4.91,0,0,1-.43-2.11,9.41,9.41,0,0,1,.63-3.53,6.61,6.61,0,0,1,1.95-2.65,8.88,8.88,0,0,1,3.34-1.67,19.46,19.46,0,0,1,7.57-.37,22.39,22.39,0,0,1,2.54.56c.81.23,1.59.49,2.33.78l2.13.85-1.63,5c-.25-.12-.56-.25-.95-.41s-.83-.31-1.32-.47-1-.32-1.55-.48-1.11-.3-1.67-.42-1.12-.22-1.66-.3a12,12,0,0,0-1.52-.11,8.16,8.16,0,0,0-2,.21,3.36,3.36,0,0,0-1.26.58,2,2,0,0,0-.64.82,2.57,2.57,0,0,0-.18.94,1.67,1.67,0,0,0,.43,1.16,3.62,3.62,0,0,0,1.18.85,10.14,10.14,0,0,0,1.77.6c.67.17,1.41.32,2.2.46,1.36.33,2.61.7,3.76,1.09a10.87,10.87,0,0,1,3,1.54,6.56,6.56,0,0,1,1.94,2.34,7.66,7.66,0,0,1,.7,3.47,6.81,6.81,0,0,1-.86,3.48,7.75,7.75,0,0,1-2.37,2.54,11.18,11.18,0,0,1-3.57,1.54,18,18,0,0,1-4.46.52,22.26,22.26,0,0,1-3.37-.24,24.31,24.31,0,0,1-2.91-.62,18.63,18.63,0,0,1-2.43-.83c-.73-.31-1.37-.61-1.93-.9Z" style="fill:#00284b"/>
<path d="M375,103.47l10.09-13.12h7.06L383,102l9.55,14.47h-7.17l-6.33-10-4,5.12v4.88H368.9V90.35H375Z" style="fill:#00284b"/>
<path d="M71.18,44.08a42.63,42.63,0,0,0-20.27,5.45L28.49,27.13v60l42.69,43,.31,0a1.23,1.23,0,0,0,.28,0l42.65-43v-60L92,49.4a42.37,42.37,0,0,0-20.26-5.32Z" style="fill:#f5406e"/>
</svg>
